#N canvas 808 105 860 550 10;
#X floatatom 125 70 5 0 0 0 - - -;
#X floatatom 275 70 5 0 0 0 - - -;
#X msg 55 76 one;
#X msg 55 96 two;
#X msg 448 189 popfirst;
#X msg 282 190 peeknth \$1;
#X floatatom 282 162 5 0 0 0 - - -;
#X floatatom 362 162 5 0 0 0 - - -;
#X msg 362 190 popnth \$1;
#X msg 528 189 peekfirst;
#X msg 448 219 poplast;
#X msg 528 219 peeklast;
#X obj 125 99 opack /foo 1 /key one;
#X obj 275 99 opack /foo 1 /key two;
#X obj 127 369 otable @key /key;
#X obj 127 414 oif !emptybundle();
#X obj 127 446 oprint;
#X obj 232 444 oprint table_is_empty;
#X msg 533 255 dump;
#X msg 533 281 read /users/rama/desktop/test.txt;
#X msg 533 309 write /users/rama/desktop/test.txt;
#X connect 0 0 12 0;
#X connect 1 0 13 0;
#X connect 2 0 14 0;
#X connect 3 0 14 0;
#X connect 4 0 14 0;
#X connect 5 0 14 0;
#X connect 6 0 5 0;
#X connect 7 0 8 0;
#X connect 8 0 14 0;
#X connect 9 0 14 0;
#X connect 10 0 14 0;
#X connect 11 0 14 0;
#X connect 12 0 14 0;
#X connect 13 0 14 0;
#X connect 14 0 15 0;
#X connect 15 0 16 0;
#X connect 15 1 17 0;
#X connect 18 0 14 0;
#X connect 19 0 14 0;
#X connect 20 0 14 0;
